# xmcd
#
# Track frame offsets: 
#        150
#        9309
#        20321
#        31218
#        40450
#        49983
#        59232
#        71506
#        81671
#        90383
#        97693
#        106188
#        117091
#        127306
#        137671
#        147889
#        156425
#        165352
#        174539
#        186614
#
# Disc length: 2630 seconds
#
# Revision: 3
# Processed by: cddbd v1.5.2PL0 Copyright (c) Steve Scherf et al.
# Submitted via: ExactAudioCopyFreeDBPlugin 1.0
#
DISCID=160a4414
DTITLE=Fats Domino - I'm Ready
DYEAR=2004
DGENRE=Blues
TTITLE0=I'm Walkin
TTITLE1=Ain't That A Shame
TTITLE2=There goes My Heart Again
TTITLE3=I'm Ready
TTITLE4=My Blue Heaven
TTITLE5=The Girl Josephine
TTITLE6=Lazy Lady
TTITLE7=Be My Guest
TTITLE8=Don't Come Knocking
TTITLE9=Whole Lotta Lovin
TTITLE10=Valley Of Tears
TTITLE11=Blueberry Hill
TTITLE12=Let The Four Winds Blow
TTITLE13=I Want To Walk You Home
TTITLE14=Blue Monday
TTITLE15=I'm In Love Again
TTITLE16=Walking To New Orleans
TTITLE17=I'm Gonna Be A Wheel Someday
TTITLE18=It Keeps Raining
TTITLE19=When The Saints Go Marchin' In
EXTD=
EXTT0=
EXTT1=
EXTT2=
EXTT3=
EXTT4=
EXTT5=
EXTT6=
EXTT7=
EXTT8=
EXTT9=
EXTT10=
EXTT11=
EXTT12=
EXTT13=
EXTT14=
EXTT15=
EXTT16=
EXTT17=
EXTT18=
EXTT19=
PLAYORDER=
